<?xml version="1.0" encoding="utf-8"?>
<!-- Generator: Adobe Illustrator 20.0.0, SVG Export Plug-In . SVG Version: 6.00 Build 0)  -->
<svg version="1.1" id="Layer_1" xmlns="http://www.w3.org/2000/svg" xmlns:xlink="http://www.w3.org/1999/xlink" x="0px" y="0px"
	 viewBox="0 0 688.7 115.1" style="enable-background:new 0 0 688.7 115.1;" xml:space="preserve">
<style type="text/css">
	.st0{fill:#FFFFFF;}
	.st1{font-family:'HelveticaNeue';}
	.st2{font-size:10px;}
	.st3{letter-spacing:1;}
</style>
<g>
	<g>
		<path class="st0" d="M172.4,25.5v58h-12.1v-25h-25.6v25h-12.1v-58h12.1v24.6h25.6V25.5H172.4z"/>
		<path class="st0" d="M200.4,41.6c3.1,0,5.9,0.5,8.4,1.5c2.5,1,4.7,2.4,6.5,4.2c1.8,1.8,3.2,4,4.2,6.7c1,2.6,1.5,5.6,1.5,8.8
			c0,3.3-0.5,6.2-1.5,8.9c-1,2.6-2.4,4.9-4.2,6.7c-1.8,1.8-4,3.3-6.5,4.2c-2.5,1-5.3,1.5-8.4,1.5c-3.1,0-6-0.5-8.5-1.5
			c-2.5-1-4.7-2.4-6.5-4.2c-1.8-1.8-3.2-4.1-4.2-6.7c-1-2.6-1.5-5.6-1.5-8.9c0-3.3,0.5-6.2,1.5-8.8c1-2.6,2.4-4.8,4.2-6.7
			c1.8-1.8,4-3.2,6.5-4.2C194.4,42.1,197.3,41.6,200.4,41.6z M200.4,75.8c3.1,0,5.5-1.1,7-3.3c1.5-2.2,2.3-5.4,2.3-9.7
			c0-4.3-0.8-7.5-2.3-9.7s-3.9-3.3-7-3.3c-3.2,0-5.6,1.1-7.1,3.3s-2.3,5.4-2.3,9.7c0,4.3,0.8,7.5,2.3,9.7
			C194.8,74.7,197.2,75.8,200.4,75.8z"/>
		<path class="st0" d="M228,83.5V42.3h6.8c1.4,0,2.3,0.6,2.8,1.9l0.6,2.7c0.7-0.7,1.5-1.4,2.2-2.1c0.8-0.6,1.6-1.2,2.5-1.7
			c0.9-0.5,1.8-0.8,2.9-1.1c1-0.3,2.1-0.4,3.3-0.4c2.5,0,4.6,0.7,6.3,2c1.7,1.3,2.9,3.1,3.8,5.4c0.7-1.3,1.5-2.4,2.5-3.4
			c1-0.9,2-1.7,3.2-2.3c1.2-0.6,2.4-1,3.7-1.3c1.3-0.3,2.6-0.4,3.9-0.4c2.3,0,4.4,0.3,6.2,1c1.8,0.7,3.3,1.7,4.5,3.1
			c1.2,1.3,2.1,3,2.8,4.9c0.6,1.9,1,4.2,1,6.6v26.2h-11V57.3c0-4.8-2.1-7.2-6.2-7.2c-0.9,0-1.8,0.2-2.6,0.5
			c-0.8,0.3-1.5,0.8-2.1,1.4c-0.6,0.6-1.1,1.4-1.4,2.3c-0.3,0.9-0.5,1.9-0.5,3.1v26.2h-11V57.3c0-2.6-0.5-4.5-1.5-5.6
			c-1-1.1-2.5-1.7-4.5-1.7c-1.3,0-2.5,0.3-3.6,0.9s-2.2,1.4-3.2,2.5v30H228z"/>
		<path class="st0" d="M304.3,64.6c0.3,3.9,1.4,6.7,3.3,8.5c1.9,1.8,4.3,2.7,7.3,2.7c1.5,0,2.8-0.2,3.9-0.5c1.1-0.4,2.1-0.8,2.9-1.2
			s1.6-0.8,2.3-1.2c0.7-0.4,1.4-0.5,2-0.5c0.9,0,1.5,0.3,2,1l3.2,4c-1.2,1.4-2.5,2.5-3.9,3.4c-1.4,0.9-2.9,1.6-4.4,2.1
			c-1.5,0.5-3.1,0.9-4.6,1.1c-1.5,0.2-3,0.3-4.5,0.3c-2.9,0-5.6-0.5-8.1-1.4c-2.5-0.9-4.7-2.3-6.5-4.2s-3.3-4.2-4.4-6.9
			c-1.1-2.7-1.6-5.9-1.6-9.6c0-2.8,0.5-5.4,1.4-7.9s2.2-4.6,4-6.5c1.7-1.8,3.8-3.3,6.3-4.4c2.5-1.1,5.3-1.6,8.4-1.6
			c2.6,0,5.1,0.4,7.3,1.3c2.2,0.8,4.1,2.1,5.8,3.7s2.9,3.6,3.8,5.9c0.9,2.3,1.3,5,1.3,8c0,0.8,0,1.5-0.1,2c-0.1,0.5-0.2,1-0.4,1.3
			c-0.2,0.3-0.4,0.5-0.8,0.7c-0.3,0.1-0.7,0.2-1.2,0.2H304.3z M321.6,58c0-1.1-0.2-2.2-0.5-3.3c-0.3-1-0.8-2-1.5-2.8
			c-0.7-0.8-1.5-1.4-2.5-1.9c-1-0.5-2.2-0.7-3.6-0.7c-2.6,0-4.7,0.7-6.2,2.2c-1.5,1.5-2.5,3.6-2.9,6.4H321.6z"/>
		<path class="st0" d="M391.2,83.5h-10.8c-2,0-3.5-0.8-4.4-2.3l-11-17.8c-0.5-0.7-1-1.2-1.5-1.5c-0.5-0.3-1.4-0.5-2.4-0.5h-4.1v22.1
			h-12v-58h18.2c4.1,0,7.5,0.4,10.4,1.3c2.9,0.8,5.2,2,7.1,3.5c1.8,1.5,3.2,3.3,4,5.3c0.9,2.1,1.3,4.3,1.3,6.8
			c0,1.9-0.3,3.7-0.8,5.5c-0.5,1.7-1.3,3.3-2.4,4.7c-1,1.4-2.3,2.7-3.8,3.8c-1.5,1.1-3.3,2-5.2,2.6c0.8,0.4,1.5,0.9,2.2,1.5
			c0.7,0.6,1.3,1.3,1.8,2.1L391.2,83.5z M363.1,52.9c1.9,0,3.6-0.2,5-0.7c1.4-0.5,2.6-1.2,3.5-2c0.9-0.9,1.6-1.9,2-3.1
			c0.4-1.2,0.6-2.5,0.6-3.8c0-2.7-0.9-4.9-2.7-6.4c-1.8-1.5-4.6-2.3-8.3-2.3h-6.2v18.4H363.1z"/>
		<path class="st0" d="M429.9,42.3v41.2h-6.8c-1.4,0-2.3-0.6-2.7-1.9l-0.7-2.9c-0.8,0.8-1.7,1.5-2.6,2.2c-0.9,0.7-1.8,1.2-2.8,1.7
			c-1,0.5-2.1,0.9-3.2,1.1c-1.2,0.3-2.4,0.4-3.8,0.4c-2.2,0-4.2-0.4-6-1.2c-1.7-0.8-3.2-1.9-4.4-3.2s-2.1-3-2.7-5
			c-0.6-1.9-0.9-4-0.9-6.3V42.3h11v26.2c0,2.3,0.5,4.1,1.6,5.3c1.1,1.3,2.6,1.9,4.7,1.9c1.5,0,3-0.3,4.4-1c1.4-0.7,2.7-1.6,3.9-2.8
			V42.3H429.9z"/>
		<path class="st0" d="M449.3,47.1c0.8-0.8,1.7-1.5,2.6-2.2c0.9-0.7,1.8-1.2,2.8-1.7s2.1-0.9,3.2-1.1c1.2-0.3,2.4-0.4,3.8-0.4
			c2.2,0,4.2,0.4,6,1.2c1.7,0.8,3.2,1.9,4.4,3.2c1.2,1.4,2.1,3,2.7,5c0.6,1.9,0.9,4,0.9,6.3v26.2h-11V57.3c0-2.3-0.5-4.1-1.6-5.3
			c-1.1-1.3-2.6-1.9-4.7-1.9c-1.5,0-3,0.3-4.4,1c-1.4,0.7-2.7,1.6-3.9,2.8v29.6h-11V42.3h6.8c1.4,0,2.3,0.6,2.8,1.9L449.3,47.1z"/>
		<path class="st0" d="M525.7,77v6.5h-32.5V26.2h7.7V77H525.7z"/>
		<path class="st0" d="M546.7,42.3c3,0,5.6,0.5,8,1.5c2.4,1,4.4,2.4,6.1,4.2c1.7,1.8,3,4,3.9,6.6c0.9,2.6,1.3,5.4,1.3,8.6
			c0,3.2-0.4,6.1-1.3,8.6c-0.9,2.6-2.2,4.7-3.9,6.6c-1.7,1.8-3.7,3.2-6.1,4.2c-2.4,1-5,1.5-8,1.5c-3,0-5.7-0.5-8.1-1.5
			c-2.4-1-4.4-2.4-6.1-4.2c-1.7-1.8-3-4-3.9-6.6c-0.9-2.6-1.3-5.4-1.3-8.6c0-3.2,0.4-6,1.3-8.6c0.9-2.6,2.2-4.8,3.9-6.6
			c1.7-1.8,3.7-3.2,6.1-4.2C541.1,42.8,543.7,42.3,546.7,42.3z M546.7,78.5c4,0,7-1.3,9-4c2-2.7,3-6.4,3-11.2c0-4.8-1-8.6-3-11.3
			c-2-2.7-5-4-9-4c-2,0-3.8,0.3-5.3,1c-1.5,0.7-2.8,1.7-3.8,3c-1,1.3-1.7,2.9-2.2,4.8c-0.5,1.9-0.7,4.1-0.7,6.5c0,4.8,1,8.5,3,11.2
			C539.7,77.2,542.7,78.5,546.7,78.5z"/>
		<path class="st0" d="M608.7,43l-22.6,52.5c-0.2,0.5-0.5,1-0.9,1.3c-0.4,0.3-0.9,0.5-1.7,0.5h-5.3l7.4-16.1L568.9,43h6.2
			c0.6,0,1.1,0.2,1.5,0.5c0.4,0.3,0.6,0.6,0.7,1L588.1,70c0.4,1.1,0.8,2.3,1.1,3.5c0.4-1.3,0.8-2.4,1.2-3.6l10.5-25.5
			c0.2-0.4,0.4-0.8,0.8-1.1c0.4-0.3,0.8-0.4,1.3-0.4H608.7z"/>
		<path class="st0" d="M613.1,48.7c2.2-2.2,4.7-3.8,7.2-4.8c2.6-1.1,5.5-1.6,8.6-1.6c2.3,0,4.3,0.4,6,1.1c1.8,0.7,3.2,1.8,4.4,3.1
			c1.2,1.3,2.1,2.9,2.7,4.8c0.6,1.9,0.9,4,0.9,6.2v25.9h-3.2c-0.7,0-1.2-0.1-1.6-0.3c-0.4-0.2-0.7-0.7-0.9-1.3l-0.8-3.8
			c-1.1,1-2.1,1.9-3.1,2.6c-1,0.8-2.1,1.4-3.2,1.9c-1.1,0.5-2.3,0.9-3.6,1.2c-1.3,0.3-2.7,0.4-4.2,0.4c-1.6,0-3.1-0.2-4.4-0.7
			c-1.4-0.4-2.6-1.1-3.6-2c-1-0.9-1.8-2-2.4-3.3s-0.9-2.9-0.9-4.8c0-1.6,0.4-3.1,1.3-4.6c0.9-1.5,2.3-2.8,4.3-3.9
			c2-1.1,4.5-2.1,7.7-2.8c3.2-0.7,7.1-1.2,11.7-1.3v-3.2c0-3.1-0.7-5.5-2-7.1c-1.4-1.6-3.3-2.4-6-2.4c-1.8,0-3.2,0.2-4.4,0.7
			s-2.2,0.9-3.1,1.5c-0.9,0.5-1.6,1-2.2,1.5c-0.6,0.4-1.2,0.7-1.9,0.7c-0.5,0-0.9-0.1-1.2-0.4c-0.3-0.3-0.6-0.6-0.9-0.9L613.1,48.7z
			 M636.1,65.3c-3.3,0.1-6.1,0.4-8.4,0.8c-2.3,0.4-4.2,1-5.6,1.6c-1.5,0.7-2.5,1.5-3.2,2.4c-0.7,0.9-1,1.9-1,3c0,1.1,0.2,2,0.5,2.8
			s0.8,1.4,1.4,1.9c0.6,0.5,1.3,0.9,2.1,1.1c0.8,0.2,1.7,0.3,2.6,0.3c1.3,0,2.4-0.1,3.4-0.4c1-0.3,2-0.6,2.9-1.1
			c0.9-0.5,1.8-1.1,2.6-1.7c0.8-0.7,1.7-1.4,2.5-2.3V65.3z"/>
		<path class="st0" d="M661.3,24.6v58.9h-7.1V24.6H661.3z"/>
	</g>
	<text id="XMLID_3_" transform="matrix(1 0 0 1 671.9941 32.7911)" class="st0 st1 st2 st3">TM</text>
	<g>
		<path class="st0" d="M99,27.7L51.7,0.4c-0.5-0.3-1-0.4-1.5-0.4s-1,0.1-1.5,0.4L1.5,27.7C0.6,28.2,0,29.2,0,30.3v54.5
			c0,1.1,0.6,2.1,1.5,2.6l47.2,27.3c0.5,0.3,1,0.4,1.5,0.4s1-0.1,1.5-0.4L99,87.4c0.9-0.5,1.5-1.5,1.5-2.6V30.3
			C100.5,29.2,99.9,28.2,99,27.7z M97.5,84.8l-47.2,27.3L3,84.8V30.3L50.2,3l47.2,27.3V84.8z"/>
		<path class="st0" d="M45,30.9c1.3,1.4,2.1,3.3,2.1,5.2c0.1,2.4-0.9,4.8-2.7,6.7c0.9,0.9,1.9,1.6,3.2,2c0.8,0.3,1.7,0.4,2.6,0.4
			c1.2,0,2.3-0.3,3.3-0.7c-2.4-1.5-3.9-4.1-3.9-7c-0.1-3.1,1.6-5.9,4.3-7.6c-0.4-0.2-0.7-0.4-1.1-0.5C51.8,29.2,51,29,50.1,29
			C48.2,29,46.4,29.7,45,30.9z"/>
		<path class="st0" d="M43.6,32.3c-0.5,0.7-0.9,1.5-1.2,2.3c-0.8,2.3-0.4,4.7,0.7,6.6c1.3-1.5,2-3.3,2-5.1
			C45.1,34.7,44.5,33.4,43.6,32.3z"/>
		<path class="st0" d="M55.4,43.4c1.1-0.9,2-2.2,2.5-3.6c1-3.1,0.1-6.4-2.2-8.5c-2.6,1.3-4.2,3.7-4.1,6.4
			C51.6,40.1,53,42.3,55.4,43.4z"/>
		<path class="st0" d="M3,30.3v54.5l47.2,27.3l47.2-27.3V30.3L50.2,3L3,30.3z M38.3,81.3c-1.7,1.7-3,3-3.8,4.1
			c0.3,0.7,0.2,1.5-0.4,2.1c-0.4,0.4-0.8,0.5-1.3,0.5c-0.5,0-0.9-0.2-1.3-0.5l-2.7-2.7c-0.7-0.7-0.7-1.9,0-2.6
			c0.6-0.6,1.4-0.7,2.1-0.4c1.2-0.9,2.4-2.1,4.1-3.8l2.2-2.2l3.3,3.3L38.3,81.3z M45.4,74.2l-3.1,3.1L38.9,74l3.1-3.1
			c0.7-0.7,1.3-1.3,1.9-2c1.5,1,2.8,1.9,4.1,2.9C47.2,72.5,46.3,73.3,45.4,74.2z M55.1,74.5c-7.3-7.3-13.8-9-25.7-20.8
			c-2.2-2.2-12.9-12.9-12.9-12.9c-2.3-2.3-2.1-6.1,0-8.2c1-1,2.6-1.6,4.1-1.6c1.5,0,3,0.5,4.1,1.6c0,0,10.6,10.6,12.9,12.9
			c11.2,11.2,13.5,18.4,20.8,25.7l2.4,2.4L57.6,77L55.1,74.5z M71.8,85.2l-2.7,2.7c-0.4,0.4-0.8,0.5-1.3,0.5c-0.5,0-1-0.2-1.3-0.5
			c-0.6-0.6-0.7-1.4-0.4-2.1c-0.9-1.2-2.1-2.4-3.8-4.1l-2.9-2.9l3.3-3.3l2.9,2.9c1.7,1.7,3,3,4.1,3.8c0.2-0.1,0.5-0.2,0.8-0.2
			c0.5,0,0.9,0.2,1.3,0.5C72.5,83.3,72.5,84.5,71.8,85.2z M75.8,32.3c2.3-2.3,6.1-2.1,8.2,0c2.1,2.1,2.1,6.1,0,8.2
			c0,0-10.6,10.6-12.9,12.9c-5.7,5.7-10.3,9.1-14.5,12c-1.4-1.8-2.7-3.6-4.1-5.7c-0.3-0.4-0.6-0.8-0.8-1.2c2.7-3.7,5.9-8,11.3-13.3
			C65.1,43,75.8,32.3,75.8,32.3z M60.1,40.5c-1.4,4.3-5.4,7.2-9.9,7.2c-1.1,0-2.2-0.2-3.3-0.5c-5.5-1.8-8.5-7.8-6.6-13.3
			c1.4-4.3,5.4-7.2,10-7.2c1.1,0,2.2,0.2,3.3,0.5C58.9,29.1,61.9,35,60.1,40.5z"/>
	</g>
</g>
</svg>
