<?xml version="1.0" encoding="utf-8"?>
<!-- Generator: Adobe Illustrator 20.0.0, SVG Export Plug-In . SVG Version: 6.00 Build 0)  -->
<svg version="1.1" id="Layer_1" xmlns="http://www.w3.org/2000/svg" xmlns:xlink="http://www.w3.org/1999/xlink" x="0px" y="0px"
	 viewBox="0 0 335 55" style="enable-background:new 0 0 335 55;" xml:space="preserve">
<style type="text/css">
	.st0{fill:#FFFFFF;}
	.st1{fill:#C02529;}
	.st2{fill:#FFFFFF;stroke:#FFFFFF;stroke-width:0.2;stroke-miterlimit:10;}
	.st3{clip-path:url(#XMLID_13_);fill:#FFFFFF;}
</style>
<g>
	<g>
		<path class="st0" d="M81.5,15.1v22h-4.2v-9.5H67v9.5h-4.2v-22H67v9h10.3v-9H81.5z"/>
		<path class="st0" d="M93.3,14.9c4,0,6.6,0.7,7.7,2c1.1,1.3,1.7,4.3,1.7,8.9c0,5-0.6,8.2-1.7,9.5c-1.2,1.3-3.9,2-8.4,2
			c-4,0-6.6-0.6-7.7-1.9c-1.2-1.3-1.8-4.1-1.8-8.5c0-5.2,0.6-8.5,1.7-9.9C86,15.6,88.8,14.9,93.3,14.9z M93,18.5
			c-2.8,0-4.4,0.4-4.9,1.1c-0.5,0.7-0.7,3.2-0.7,7.5c0,3.2,0.3,5.1,0.8,5.7c0.6,0.6,2.2,1,4.9,1c2.6,0,4.1-0.4,4.7-1.1
			c0.5-0.7,0.8-2.9,0.8-6.6c0-3.7-0.2-5.9-0.7-6.5C97.3,18.9,95.7,18.5,93,18.5z"/>
		<path class="st0" d="M130.1,15.1v22H126v-12c0-1,0-2,0.1-3.3l0.1-1.6l0.1-1.6h-0.1l-0.5,1.5l-0.5,1.5c-0.5,1.4-0.8,2.4-1,3
			l-4.8,12.4h-3.8l-4.9-12.3c-0.3-0.7-0.6-1.7-1.1-3l-0.5-1.5l-0.5-1.5h-0.1l0.1,1.6l0.1,1.6c0.1,1.2,0.1,2.3,0.1,3.2v12h-4.2v-22
			h6.8l3.9,10.2c0.3,0.7,0.6,1.7,1.1,3l0.5,1.5l0.5,1.5h0.1l0.5-1.5l0.5-1.5c0.4-1.3,0.7-2.3,1-3l3.9-10.2H130.1z"/>
		<path class="st0" d="M136.6,18.6v5.7h10.3v3.1h-10.3v6.2h11v3.5h-15.1v-22h15v3.5H136.6z"/>
		<path class="st0" d="M156.6,37.1v-22h10.8c2.7,0,4.6,0.5,5.6,1.4c1,0.9,1.5,2.6,1.5,5.1c0,2.2-0.3,3.7-0.8,4.6
			c-0.5,0.8-1.6,1.4-3.1,1.7V28c2.4,0.2,3.7,1.6,3.7,4.3v4.8h-4.2v-4c0-2.3-1.1-3.4-3.3-3.4h-6v7.4H156.6z M160.8,26.2h6
			c1.4,0,2.4-0.3,2.8-0.8c0.5-0.5,0.7-1.5,0.7-3.1c0-1.6-0.2-2.6-0.6-3c-0.4-0.5-1.3-0.7-2.6-0.7h-6.3V26.2z"/>
		<path class="st0" d="M190.8,15.1h4.2v14.6c0,3.1-0.6,5.1-1.8,6.1c-1.2,1-3.6,1.5-7.2,1.5c-3.8,0-6.3-0.5-7.5-1.4
			c-1.2-0.9-1.8-2.9-1.8-5.9V15.1h4.2V30c0,1.6,0.3,2.6,0.9,3.1c0.6,0.4,1.9,0.7,4.1,0.7c2.2,0,3.6-0.2,4.1-0.7
			c0.6-0.4,0.8-1.5,0.8-3.2V15.1z"/>
		<path class="st0" d="M218.1,15.1v22H211l-6.3-12.1c-0.3-0.6-0.8-1.7-1.5-3.2l-0.7-1.6l-0.7-1.6h-0.2l0.1,1.4l0,1.4l0,2.9v12.6
			h-4.2v-22h7.1l5.7,11.1c0.5,1,1.1,2.2,1.8,3.6l0.8,1.8l0.8,1.8h0.1l0-1.4l0-1.4l0-2.8V15.1H218.1z"/>
		<path class="st0" d="M231.7,15.1v19.7H243v2.3h-13.8v-22H231.7z"/>
		<path class="st0" d="M255.4,14.9c4.2,0,6.8,0.6,7.8,1.8c1,1.2,1.6,4.2,1.6,9.1c0,5.2-0.5,8.5-1.5,9.7c-1,1.2-3.6,1.8-7.9,1.8
			c-4.2,0-6.8-0.6-7.9-1.8c-1-1.2-1.5-4.3-1.5-9.4v-1.5l0-2.1c0-2.9,0.7-4.9,2-6C249.3,15.4,251.8,14.9,255.4,14.9z M255.4,17
			c-3.5,0-5.5,0.4-6.1,1.2c-0.6,0.8-0.9,3.4-0.9,8c0,4.5,0.3,7.2,0.9,8c0.6,0.8,2.6,1.2,6.1,1.2c3.5,0,5.5-0.4,6.1-1.2
			c0.6-0.8,0.9-3.4,0.9-8v-1.4l0-2.1c0-2.4-0.4-4-1.2-4.6C260.3,17.3,258.4,17,255.4,17z"/>
		<path class="st0" d="M286.4,15.1l-8.3,12.8v9.2h-2.5v-9.2l-8.1-12.8h2.9l4.7,7.4L276,24c0.1,0.2,0.3,0.4,0.5,0.7l0.4,0.7h0.1
			c0.2-0.3,0.3-0.6,0.4-0.7l0.4-0.7l0.9-1.4l4.7-7.4H286.4z"/>
		<path class="st0" d="M303.9,32.5h-11.1l-1.7,4.7h-2.6l8.1-22h3.5l8.2,22h-2.6L303.9,32.5z M303.2,30.6l-4.9-13.4l-4.8,13.4H303.2z
			"/>
		<path class="st0" d="M315.1,15.1v19.7h11.3v2.3h-13.8v-22H315.1z"/>
	</g>
	<g>
		<g>
			<path id="XMLID_21_" class="st1" d="M47.5,9.4H31.3H15c-1.9,0-3.5,1.5-3.5,3.3v1.5v0.2l0.3,11.8c0.1,5.6,1.9,11.1,5.1,15.8
				c2.9,4.2,7.4,8.3,14.3,10.6c6.9-2.3,11.4-6.4,14.3-10.6c3.2-4.6,5-10.1,5.1-15.8l0.3-11.8v-0.2v-1.5C50.9,10.8,49.4,9.4,47.5,9.4
				z"/>
			<g id="XMLID_3_">
				<path id="XMLID_18_" class="st0" d="M48.2,8.4h-17h-17c-2,0-3.7,1.5-3.7,3.4v1.5v0.2l0.3,12.4c0.1,5.9,2,11.7,5.3,16.5
					c3.1,4.4,7.8,8.7,15,11.1c7.3-2.4,12-6.7,15-11.1c3.4-4.8,5.2-10.6,5.3-16.5l0.3-12.4v-0.2v-1.5C51.9,9.9,50.2,8.4,48.2,8.4z
					 M50.5,12.5l-0.2,12.9c-0.1,5.2-1.5,10.3-4.2,14.7c-0.2,0.3-0.4,0.6-0.6,1c-3.4,5.1-8.2,8.8-14.2,11c-6.1-2.1-10.8-5.8-14.2-11
					c-0.2-0.3-0.4-0.6-0.6-1c-2.7-4.4-4.1-9.5-4.2-14.7L12,12.5v-0.7c0-1.1,1-2,2.3-2h17h17c1.2,0,2.3,0.9,2.3,2V12.5z"/>
				<g id="XMLID_9_">
					<path id="XMLID_11_" class="st0" d="M56.4,50.6L56.4,50.6c-0.2-0.5-0.7-0.9-1.2-1c-0.2,0-0.5,0-0.7,0c-0.7-0.6-3.9-3.7-7.9-7.7
						c-0.1,0.2-0.2,0.4-0.4,0.6c-0.6,0.9-1.3,1.8-2.1,2.7c3.8,3.8,6.8,6.9,7.4,7.5c-0.1,0.2-0.1,0.4,0,0.7c0.1,0.5,0.5,1,1,1.2l0,0
						c0.5,0.2,1,0,1.4-0.3L56,52C56.4,51.6,56.6,51.1,56.4,50.6z M55.1,51c-0.3,0.3-0.6,0.7-1,1.1c-0.4,0.4-0.8,0.8-1.1,1
						c-0.3,0.3-0.5,0.4-0.5,0.4s0.2-0.2,0.4-0.5c0.3-0.3,0.6-0.7,1-1.1c0.4-0.4,0.8-0.8,1.1-1c0.3-0.3,0.5-0.4,0.5-0.4
						S55.4,50.7,55.1,51z"/>
				</g>
				<g id="XMLID_4_">
					<path id="XMLID_6_" class="st0" d="M6.5,52l2.1,2.1c0.4,0.4,0.9,0.5,1.4,0.3l0,0c0.5-0.2,0.9-0.6,1-1.2c0-0.2,0-0.5,0-0.7
						c0.6-0.6,3.5-3.7,7.4-7.5c-0.8-0.9-1.5-1.8-2.1-2.7c-0.1-0.2-0.3-0.4-0.4-0.6c-4,4-7.2,7.1-7.9,7.7c-0.2-0.1-0.4-0.1-0.7,0
						c-0.5,0.1-1,0.5-1.2,1l0,0C6,51.1,6.1,51.6,6.5,52z M7,50.5c0,0,0.2,0.2,0.5,0.4c0.3,0.3,0.7,0.6,1.1,1c0.4,0.4,0.8,0.8,1,1.1
						c0.3,0.3,0.4,0.5,0.4,0.5s-0.2-0.2-0.5-0.4c-0.3-0.3-0.7-0.6-1.1-1c-0.4-0.4-0.8-0.8-1-1.1C7.2,50.7,7,50.5,7,50.5z"/>
					<path id="XMLID_5_" class="st2" d="M51.7,12.5c0.6-0.6,0.9-0.9,0.9-0.9L59.2,5c0.1-0.1,0.2-0.3,0.1-0.5c0-0.1-0.1-0.2-0.1-0.3
						l-6.9,6.5l6.6-7c-0.1-0.1-0.1-0.2-0.2-0.3l-3.2,2.8l2.9-3.3c-0.1-0.1-0.2-0.2-0.3-0.3c-0.8-0.8-1.4-1.1-1.8-1.2
						c-0.2-0.1-0.4,0-0.5,0.1l-6.6,6.6c0,0-0.3,0.2-0.7,0.7c-0.2,0-0.4,0-0.6,0h-0.1c0.6-0.6,1-1,1-1l6.6-6.6c0.3-0.3,0.7-0.4,1-0.3
						c0.5,0.1,1.2,0.5,2,1.3c0.8,0.8,1.2,1.6,1.3,2c0.1,0.4,0,0.8-0.3,1L53,11.9c0,0-0.5,0.5-1.3,1.3V12.5z"/>
					<path id="XMLID_10_" class="st2" d="M11.1,12.5c-0.6-0.6-0.9-0.9-0.9-0.9L3.5,5C3.4,4.8,3.4,4.6,3.4,4.5c0-0.1,0.1-0.2,0.1-0.3
						l6.9,6.5l-6.6-7C3.8,3.6,3.9,3.5,4,3.4l3.2,2.8L4.3,2.9c0.1-0.1,0.2-0.2,0.3-0.3C5.4,1.9,6,1.6,6.4,1.5c0.2-0.1,0.4,0,0.5,0.1
						l6.6,6.6c0,0,0.3,0.2,0.7,0.7c0.2,0,0.4,0,0.6,0h0.1c-0.6-0.6-1-1-1-1L7.3,1.2C7,1,6.6,0.9,6.3,1c-0.5,0.1-1.2,0.5-2,1.3
						c-0.8,0.8-1.2,1.6-1.3,2c-0.1,0.4,0,0.8,0.3,1l6.6,6.6c0,0,0.5,0.5,1.3,1.3V12.5z"/>
				</g>
			</g>
		</g>
		<g>
			<defs>
				<path id="XMLID_1_" d="M50.5,12.5l-0.2,12.9c-0.1,5.2-1.5,10.3-4.2,14.7c-0.2,0.3-0.4,0.6-0.6,1c-3.4,5.1-8.2,8.8-14.2,11
					c-6.1-2.1-10.8-5.8-14.2-11c-0.2-0.3-0.4-0.6-0.6-1c-2.7-4.4-4.1-9.5-4.2-14.7L12,12.5v-0.7c0-1.1,1-2,2.3-2h17h17
					c1.2,0,2.3,0.9,2.3,2V12.5z"/>
			</defs>
			<clipPath id="XMLID_13_">
				<use xlink:href="#XMLID_1_"  style="overflow:visible;"/>
			</clipPath>
			<path class="st3" d="M57.5,75.7c0-0.7-0.5-2.6-1.5-3.6c-0.1-1.3-0.3-2-1.7-2.3c-0.9-2.2-1.9-6-3.9-7.5c0-0.1,0-0.3,0-0.4
				c0-1.3-0.9-1.4-1.7-1.8c0,0,0,0,0,0c0-0.3,0-0.5,0-0.8c-0.3-0.3-0.6-0.5-1-0.8c-0.7-1.9-1.6-3.7-2.6-5.5
				c-0.2-0.3-3.2-4.3-4.8-5.4c0-0.1,0.1-0.2,0.1-0.3c0-0.4-0.4-0.7-0.7-1.1c0.6-0.5,1-1.2,1-1.5c0-0.5-0.4-0.6-0.7-0.8
				c0-0.1,0-0.2,0-0.3c0-0.6-0.4-1.1-0.4-1.6c0.3-0.4,0.6-0.8,0.9-1.3c0-0.1,2.5-6.7,2.5-7.8c0-0.1,0-0.2,0-0.3
				c-0.2-0.9-0.5-1.8-1.3-2.3c-1.8-1-2.8-1-3.7-1.6c0.2-0.4,0.4-0.6,0.4-0.6c0,0,0-0.1,0-0.1c0,0,0.2-0.5,0.2-1.1
				c1.6-0.2,0.2-0.4,0.2-1.9c0-0.1,0-0.2,0.1-0.4c0.4,0,0.8,0.1,1.2,0.1c0.4,0,0.8,0,1.1-0.1c0-0.1-0.1-0.2-0.2-0.3
				c-0.6-0.4-1.3-0.6-1.8-1c-0.1-1.3-0.2-3.5-3.4-3.5c-3.6,0-5,1.9-5,4.5c0,0.3,0,1.6,0.3,1.6c0.1,0,0.2,0,0.3,0
				c0,0.1,0.1,0.2,0.2,0.3c0.3,0.3,0.6,0.5,0.8,0.8c-0.2,0.4-0.3,0.8-0.5,1.3c-0.1,0-0.3,0-0.4,0c-1.6,0-1.6,0.2-2.6,0.2
				c-0.5,0-1.1,0-1.6,0c-0.1,0-0.4,0-0.7,0.1c0.2-0.4,0.3-0.7,0.4-0.9c0.5-1.1,2.9-5.6,3.9-8.3c1-2.7,1.9-4.8,1.9-5.2
				c0-0.4-0.6-0.7-0.7-0.7c-0.1,0-0.7-0.3-1,0c-0.3,0.3-1.1,2.4-2.2,5.1c-1.1,2.7-2.4,7.5-2.8,8.7c-0.1,0.3-0.3,0.9-0.6,1.6
				c-1.9,0.5-4.7,1.5-6.3,2c-1.5,0-3.1,0.3-3.7,1.4c0,0.5,0.1,1.1,0.1,1.6c0,0.1,0,0.1,0,0.2c0,0,0,0,0,0c0,0.2,0.1,0.5,0.3,0.6
				c0.8,0.3,1.5,0.4,1.8,0.4c0.5,0,1-0.2,1.5-0.2c0,0,0.1,0,0.1,0c0.1,0.7,0.2,1.3,0.6,1.3c0.4,0,1.4-0.6,2.2-0.6
				c0.4,0,0.5,0.1,0.7,0.1c0.3,0,0.6-0.2,0.8-0.4c0.2,0.1,0.4,0.1,0.6,0.1c0.4,0,0.7-0.1,0.9-0.5c0.2,0.1,0.5,0.2,0.8,0.2
				c0.1,0,0.3,0,0.4,0c0,0.2,0.1,0.4,0.2,0.6c0.5,1.1,0.4,2.3,0.5,3.5c0,0.5,0.4,0.6,0.4,1.2c0,0.4-0.1,0.8-0.3,1.1
				c0.1,0.5,0.2,1,0.2,1.5c0,1.1-0.3,1.4-0.3,1.8c0,0.6,0.5,1.1,0.9,1.4c-0.2,0.5-0.2,0.7-0.2,0.7c0,0,0,0,0,0.1
				c-0.1,0.1-0.2,0.3-0.2,0.5c0,0,0,0.1,0.1,0.1c0,0.1-0.1,0.2-0.1,0.3c-1.7,1.5-3.9,2.6-5,4.8c-0.9,1.7-1.2,3.6-2.1,5.3
				c-0.3,0.6-0.8,0.7-0.9,1.6c-0.3,0-0.5,0.1-0.5,0.5c0,0.1,0,0.1,0,0.2c-0.7,0.1-1.1,0.4-1.1,1.3c0,0.2,0,0.4,0,0.6
				c-0.8,0.6-1.5,1.4-1.7,2.5c0,0.1-0.6,3.6-1,5.5c-1.4,0.6-1.1,1.5-1.3,3.1c-0.5,0.9-1.1,1.8-1.1,2.5c0,0.3,0.1,0.6,0.3,0.9
				c0.6,0.1,1.2,0.2,1.6,0.2c0.3,0,0.7,0,1,0c0.3,0,0.5-0.1,0.8-0.1c0.2-0.3,0.4-0.7,0.4-1.1c0.8-0.3,0.4-0.7,1.1-1.3
				c-0.1-0.4-0.2-0.7-0.2-0.7c0,0,0.2-0.5,0.2-0.9c0-0.9-0.4-1-0.4-1.7l0,0c0,0-0.2-0.4-0.3-0.9c0.4-0.8,0.8-1.6,1.5-2.2
				c1.4-1.2,3-2.5,3-4.5c0.4-0.1,0.6-0.4,0.7-1.5c1.5-0.9,3.2-2.6,4-3.6c0.2-0.1,0.5-0.2,0.7-0.4c1.3-1.2,2.2-1.3,2.7-1.6
				c0.3-0.2,2-1.6,4.5-1.6c3.1,0,5.8,3.5,6.8,4.1c0.9,0.5,1.2,0.4,2,0.8c0.4,0.8,1,1.5,1.4,2.3c0.1,0.2,0.4,0.2,0.6,0.4
				c0.5,0.7,0.8,0.6,1.1,0.7c0,0.5,0.1,0.7,0.7,1c1.4,4.8,4.4,4.3,5.5,6.8c-0.3,0.5-0.5,1-0.5,1.6c0,0.3,0.1,0.6,0.1,0.9
				c-0.2,0.3-0.2,0.6-0.2,0.9c0,0.1,0,0.1,0,0.2c0.2,0.3,0.5,0.7,0.8,1c0.4,0.4,0.9,0.4,1.3,0.4c0.2,0.6,0.5,0.8,1.6,0.8
				C57.6,76.6,57.5,76.2,57.5,75.7z"/>
		</g>
	</g>
</g>
<g>
	<path class="st0" d="M322.8,19.2v-3.8h-1.4v-0.5h3.4v0.5h-1.4v3.8H322.8z"/>
	<path class="st0" d="M325.4,19.2v-4.3h0.9l1,3c0.1,0.3,0.2,0.5,0.2,0.6c0-0.2,0.1-0.4,0.2-0.7l1-3h0.8v4.3h-0.5v-3.6l-1.2,3.6h-0.5
		l-1.2-3.7v3.7H325.4z"/>
</g>
</svg>
